<svg width="30" height="30" viewBox="0 0 30 30" fill="none" xmlns="http://www.w3.org/2000/svg">
<path d="M27.5006 2.8125H23.4375V0.9375C23.4375 0.419063 23.0184 0 22.5 0C21.9816 0 21.5625 0.419063 21.5625 0.9375V2.8125H15.9375V0.9375C15.9375 0.419063 15.5175 0 15 0C14.4825 0 14.0625 0.419063 14.0625 0.9375V2.8125H8.4375V0.9375C8.4375 0.419063 8.0175 0 7.5 0C6.9825 0 6.5625 0.419063 6.5625 0.9375V2.8125H2.50031C1.11937 2.8125 0 3.93094 0 5.31187V27.4997C0 28.8806 1.11937 30 2.50031 30H27.5006C28.8816 30 30 28.8806 30 27.4997V5.31187C30 3.93094 28.8816 2.8125 27.5006 2.8125ZM28.125 27.4997C28.125 27.8447 27.8447 28.125 27.5006 28.125H2.50031C2.15531 28.125 1.875 27.8447 1.875 27.4997V5.31187C1.875 4.96781 2.15531 4.6875 2.50031 4.6875H6.5625V6.5625C6.5625 7.08094 6.9825 7.5 7.5 7.5C8.0175 7.5 8.4375 7.08094 8.4375 6.5625V4.6875H14.0625V6.5625C14.0625 7.08094 14.4825 7.5 15 7.5C15.5175 7.5 15.9375 7.08094 15.9375 6.5625V4.6875H21.5625V6.5625C21.5625 7.08094 21.9816 7.5 22.5 7.5C23.0184 7.5 23.4375 7.08094 23.4375 6.5625V4.6875H27.5006C27.8447 4.6875 28.125 4.96781 28.125 5.31187V27.4997Z" fill="#929DA9"/>
<path d="M10.3125 11.25H6.5625V14.0625H10.3125V11.25Z" fill="#929DA9"/>
<path d="M10.3125 15.9375H6.5625V18.75H10.3125V15.9375Z" fill="#929DA9"/>
<path d="M10.3125 20.625H6.5625V23.4375H10.3125V20.625Z" fill="#929DA9"/>
<path d="M16.875 20.625H13.125V23.4375H16.875V20.625Z" fill="#929DA9"/>
<path d="M16.875 15.9375H13.125V18.75H16.875V15.9375Z" fill="#929DA9"/>
<path d="M16.875 11.25H13.125V14.0625H16.875V11.25Z" fill="#929DA9"/>
<path d="M23.4375 20.625H19.6875V23.4375H23.4375V20.625Z" fill="#929DA9"/>
<path d="M23.4375 15.9375H19.6875V18.75H23.4375V15.9375Z" fill="#929DA9"/>
<path d="M23.4375 11.25H19.6875V14.0625H23.4375V11.25Z" fill="#929DA9"/>
</svg>
