<svg width="30" height="30" viewBox="0 0 30 30" fill="none" xmlns="http://www.w3.org/2000/svg">
<path d="M4.22093 25.4215C6.95058 28.2384 10.7703 30 15 30C23.2674 30 30 23.2674 30 15C30 6.73256 23.2674 0 15 0C6.73256 0 0 6.73256 0 15C0 18.9419 1.53488 22.5349 4.02907 25.2122C4.0814 25.2994 4.15116 25.3605 4.22093 25.4215ZM15.0085 28.3333C11.8347 28.3333 8.91548 27.2263 6.66667 25.3948C10.4515 24.1901 11.8517 22.7249 12.3693 21.7481C13.0906 22.0492 13.8968 22.212 14.7878 22.2202C14.8048 22.2202 14.8303 22.2202 14.8472 22.2202C14.8557 22.2202 14.9067 22.2202 14.9236 22.2202C14.9406 22.2202 14.9661 22.2202 14.983 22.2202C15.9504 22.2039 16.8245 22.0167 17.5798 21.6667C18.0635 22.6435 19.4382 24.1575 23.3333 25.3948C21.093 27.2263 18.1823 28.3333 15.0085 28.3333ZM10.045 11.8574C10.045 11.8392 10.045 11.8209 10.045 11.8026C10.2644 7.04135 13.7741 6.66667 14.8526 6.66667C14.8983 6.66667 14.9349 6.66667 14.9623 6.66667C14.9897 6.66667 15.008 6.66667 15.0354 6.66667C15.0628 6.66667 15.0902 6.66667 15.1451 6.66667C16.2145 6.66667 19.7333 7.04135 19.9527 11.8026C19.9527 11.8209 19.9527 11.8392 19.9527 11.8574C19.9618 11.9031 20.4097 16.308 18.3532 18.6201C17.5397 19.5339 16.4521 19.9909 15.0354 20C15.0263 20 15.008 20 15.008 20C14.9988 20 14.9897 20 14.9806 20C13.5547 19.9817 12.4762 19.5339 11.6628 18.6201C9.59715 16.3263 10.0359 11.9031 10.045 11.8574ZM15 1.66667C22.35 1.66667 28.3333 7.52507 28.3333 14.7216C28.3333 18.0153 27.0718 21.0346 25.0131 23.3333C19.3539 21.7208 19.1349 19.7651 19.1349 19.7394C19.1349 19.7737 19.1349 19.7823 19.1349 19.7823H19.0736C19.1787 19.6793 19.2838 19.5764 19.389 19.4649C21.7981 16.8145 21.3951 12.277 21.3513 11.831C21.1148 7.0962 17.7946 5.41502 15.0175 5.41502C14.965 5.41502 14.9124 5.41502 14.8774 5.41502C14.8423 5.41502 14.7985 5.41502 14.7372 5.41502C11.9601 5.41502 8.63119 7.0962 8.40342 11.831C8.35961 12.2684 7.9654 16.8059 10.3657 19.4649C10.5059 19.6193 10.6548 19.7651 10.8038 19.9023C10.6198 20.3998 9.6912 21.9781 4.98686 23.3248C2.9194 21.026 1.66667 18.0153 1.66667 14.7216C1.66667 7.52507 7.65002 1.66667 15 1.66667Z" fill="#959696"/>
</svg>
