<svg width="30" height="25" viewBox="0 0 30 25" fill="none" xmlns="http://www.w3.org/2000/svg">
<path d="M26.2996 0.0463867H3.66322C1.64256 0.0463867 0 1.68895 0 3.70961V19.1807C0 21.2013 1.64256 22.8439 3.66322 22.8439H26.2934C28.3141 22.8439 29.9566 21.2013 29.9566 19.1807V3.71581C29.9628 1.69515 28.3202 0.0463867 26.2996 0.0463867ZM28.2893 19.1807C28.2893 20.2778 27.3967 21.1704 26.2996 21.1704H3.66322C2.56612 21.1704 1.67355 20.2778 1.67355 19.1807V3.71581C1.67355 2.6187 2.56612 1.72614 3.66322 1.72614H26.2934C27.3905 1.72614 28.2831 2.6187 28.2831 3.71581V19.1807H28.2893Z" fill="#B1B6BC"/>
<path d="M18.8926 11.253L26.219 4.6828C26.5599 4.37289 26.5909 3.84603 26.281 3.49892C25.9711 3.15801 25.4442 3.12702 25.0971 3.43693L14.9938 12.5051L13.0227 10.7448C13.0165 10.7386 13.0103 10.7324 13.0103 10.7262C12.9669 10.6828 12.9235 10.6456 12.874 10.6084L4.8533 3.43074C4.50619 3.12082 3.97933 3.15181 3.66941 3.49892C3.3595 3.84603 3.39049 4.37289 3.7376 4.6828L11.1508 11.3088L3.76859 18.22C3.43388 18.5361 3.41528 19.063 3.7314 19.4039C3.89875 19.5774 4.12189 19.6704 4.34503 19.6704C4.54958 19.6704 4.75413 19.596 4.91528 19.4473L12.4091 12.4369L14.4421 14.2531C14.6033 14.3956 14.8016 14.4638 15 14.4638C15.1983 14.4638 15.4029 14.3894 15.5578 14.2469L17.6467 12.375L25.0971 19.4535C25.2583 19.6084 25.469 19.6828 25.6735 19.6828C25.8967 19.6828 26.1136 19.596 26.281 19.4225C26.5971 19.0878 26.5847 18.5547 26.25 18.2386L18.8926 11.253Z" fill="#959696"/>
</svg>
