<svg width="30" height="30" viewBox="0 0 30 30" fill="none" xmlns="http://www.w3.org/2000/svg">
<path d="M15 0C6.72904 0 0 6.72904 0 15C0 23.271 6.72904 30 15 30C23.271 30 30 23.271 30 15C30 6.72904 23.2711 0 15 0ZM15 28.026C7.81748 28.026 1.97411 22.1825 1.97411 15C1.97411 7.81748 7.81748 1.97411 15 1.97411C22.1825 1.97411 28.0259 7.81748 28.0259 15C28.0259 22.1825 22.1825 28.026 15 28.026Z" fill="#929DA9"/>
<path d="M15.9871 14.1143V8.51008C16.5456 8.71751 17.0329 9.09809 17.3718 9.61276C17.6717 10.0681 18.2838 10.1941 18.739 9.89436C19.1943 9.59457 19.3204 8.98246 19.0204 8.52714C18.3113 7.45041 17.2186 6.71942 15.9871 6.4618V4.89379C15.9871 4.34866 15.5452 3.90674 15 3.90674C14.4549 3.90674 14.013 4.34866 14.013 4.89379V6.45884C11.8283 6.9143 10.1821 8.85442 10.1821 11.1722C10.1821 13.4899 11.8285 15.4303 14.013 15.8858V21.49C13.4544 21.2826 12.9671 20.902 12.6283 20.3873C12.3283 19.932 11.7162 19.8058 11.2611 20.1057C10.8057 20.4055 10.6797 21.0176 10.9796 21.4729C11.6887 22.5497 12.7814 23.2807 14.013 23.5383V25.1062C14.013 25.6513 14.4549 26.0932 15 26.0932C15.5452 26.0932 15.9871 25.6513 15.9871 25.1062V23.5412C18.1717 23.0858 19.818 21.1457 19.818 18.8279C19.818 16.5102 18.1717 14.5698 15.9871 14.1143V14.1143ZM12.1562 11.1722C12.1562 9.95203 12.9309 8.91224 14.013 8.51079V13.8336C12.9309 13.4321 12.1562 12.3923 12.1562 11.1722V11.1722ZM15.9871 21.4892V16.1664C17.0692 16.5678 17.8439 17.6076 17.8439 18.8278C17.8439 20.0479 17.0693 21.0877 15.9871 21.4892Z" fill="#929DA9"/>
</svg>
