<svg width="25" height="9" viewBox="0 0 25 9" fill="none" xmlns="http://www.w3.org/2000/svg">
<g clip-path="url(#clip0)">
<path d="M10.3758 7.69776H8.44507L9.65269 0.230713H11.5833L10.3758 7.69776Z" fill="#00579F"/>
<path d="M17.375 0.413116C16.9941 0.262031 16.3901 0.0952148 15.6432 0.0952148C13.7366 0.0952148 12.3939 1.11195 12.3857 2.56558C12.3698 3.63806 13.347 4.23374 14.0778 4.59134C14.8248 4.95675 15.0787 5.19526 15.0787 5.52097C15.0711 6.02121 14.4751 6.2518 13.9192 6.2518C13.1484 6.2518 12.7353 6.13292 12.1077 5.85461L11.8534 5.7353L11.5833 7.41149C12.0361 7.61779 12.8704 7.80087 13.7366 7.80889C15.7624 7.80889 17.0813 6.80789 17.097 5.25882C17.1047 4.40879 16.5887 3.75747 15.4763 3.22524C14.801 2.88358 14.3875 2.65321 14.3875 2.30363C14.3954 1.98584 14.7372 1.66033 15.4995 1.66033C16.1272 1.64439 16.5884 1.79526 16.9377 1.94624L17.1124 2.02553L17.375 0.413116Z" fill="#00579F"/>
<path fill-rule="evenodd" clip-rule="evenodd" d="M20.8309 0.230713H22.3243L23.8819 7.69765H22.0942C22.0942 7.69765 21.9193 6.83971 21.8639 6.57755H19.3849C19.3133 6.77604 18.9797 7.69765 18.9797 7.69765H16.9539L19.8217 0.850257C20.0204 0.365644 20.3703 0.230713 20.8309 0.230713ZM20.7119 2.96323C20.7119 2.96323 20.1 4.62348 19.941 5.05245H21.5459C21.4665 4.67912 21.1008 2.89175 21.1008 2.89175L20.9659 2.24835C20.9091 2.41403 20.8269 2.64182 20.7715 2.79545C20.7339 2.8996 20.7086 2.96967 20.7119 2.96323Z" fill="#00579F"/>
<path d="M6.83245 0.230713L4.94161 5.32252L4.73499 4.28984C4.38542 3.09827 3.28907 1.80364 2.06561 1.15992L3.79755 7.68984H5.83926L8.87405 0.230713H6.83245V0.230713Z" fill="#00579F"/>
<path d="M3.18582 0.230713H0.0794481L0.0476685 0.381587C2.47084 1.00124 4.07565 2.49488 4.735 4.29016L4.05971 0.858386C3.94853 0.381481 3.60688 0.246444 3.18582 0.230713Z" fill="#FAA61A"/>
</g>
<defs>
<clipPath id="clip0">
<rect x="0.0136719" y="0.0200195" width="24" height="8" fill="white"/>
</clipPath>
</defs>
</svg>
