<svg width="26" height="30" viewBox="0 0 26 30" fill="none" xmlns="http://www.w3.org/2000/svg">
<path d="M12.8087 6.4729C11.4721 6.4729 10.3857 7.56375 10.3857 8.9029V11.2684H15.2343V8.9029C15.2343 7.56439 14.146 6.4729 12.8087 6.4729Z" fill="#338BD9"/>
<path d="M0 0V15.2732C0 23.4064 12.81 30 12.81 30C12.81 30 25.62 23.4064 25.62 15.2732V0H0ZM19.7362 19.2434C19.7362 20.2462 18.9153 21.0664 17.9138 21.0664H7.70745C6.70532 21.0664 5.88511 20.2462 5.88511 19.2434V13.0902C5.88511 12.0887 6.70596 11.2679 7.70745 11.2679H7.95447V8.90234C7.95447 6.22277 10.133 4.04298 12.8094 4.04298C15.487 4.04298 17.6662 6.22277 17.6662 8.90234V11.2679H17.9138C18.916 11.2679 19.7362 12.0887 19.7362 13.0902V19.2434Z" fill="#338BD9"/>
</svg>
