<svg width="15" height="18" viewBox="0 0 15 18" fill="none" xmlns="http://www.w3.org/2000/svg">
<path d="M4.21899 16.928L4.52267 14.9991L3.84622 14.9834H0.616089L2.86086 0.750095C2.86783 0.707128 2.89048 0.667063 2.92357 0.638611C2.95667 0.61016 2.99906 0.594482 3.04319 0.594482H8.48964C10.2978 0.594482 11.5456 0.970741 12.1971 1.71339C12.5025 2.06177 12.697 2.42584 12.7911 2.82648C12.8898 3.24687 12.8915 3.74913 12.7951 4.36171L12.7882 4.40642V4.79893L13.0936 4.97197C13.3508 5.10842 13.5552 5.26461 13.712 5.44345C13.9733 5.74132 14.1422 6.1199 14.2136 6.56874C14.2874 7.03035 14.263 7.57964 14.1422 8.20151C14.0029 8.91687 13.7776 9.5399 13.4733 10.0497C13.1934 10.5195 12.8369 10.9091 12.4136 11.211C12.0095 11.4978 11.5293 11.7156 10.9864 11.8549C10.4603 11.992 9.86054 12.0611 9.20267 12.0611H8.7788C8.4757 12.0611 8.18131 12.1702 7.95022 12.3659C7.71854 12.5656 7.56525 12.8385 7.51822 13.137L7.48628 13.3106L6.94977 16.7103L6.92538 16.8351C6.91899 16.8746 6.90796 16.8944 6.8917 16.9077C6.87719 16.9199 6.85628 16.928 6.83596 16.928H4.21899Z" fill="#253B80"/>
<path d="M13.3827 4.4519C13.3664 4.55584 13.3478 4.6621 13.3269 4.77126C12.6087 8.45894 10.1514 9.73287 7.01301 9.73287H5.41507C5.03127 9.73287 4.70785 10.0116 4.64804 10.3902L3.82991 15.5788L3.59823 17.0496C3.55933 17.2981 3.75094 17.5222 4.00178 17.5222H6.83591C7.17152 17.5222 7.45662 17.2784 7.50946 16.9474L7.53733 16.8034L8.07094 13.4171L8.1052 13.2313C8.15746 12.8991 8.44314 12.6553 8.77875 12.6553H9.20262C11.9485 12.6553 14.098 11.5404 14.7263 8.31436C14.9887 6.96668 14.8529 5.84139 14.1584 5.04997C13.9482 4.81132 13.6875 4.61332 13.3827 4.4519Z" fill="#179BD7"/>
<path d="M12.6314 4.15209C12.5216 4.12016 12.4084 4.09113 12.2923 4.065C12.1756 4.03945 12.0559 4.0168 11.9328 3.99706C11.502 3.92738 11.0299 3.89429 10.5242 3.89429H6.2553C6.1502 3.89429 6.05033 3.91809 5.96091 3.96106C5.76407 4.05571 5.61775 4.24209 5.58233 4.47029L4.6742 10.2222L4.64807 10.39C4.70788 10.0114 5.0313 9.73267 5.4151 9.73267H7.01304C10.1514 9.73267 12.6087 8.45816 13.327 4.77106C13.3485 4.6619 13.3665 4.55564 13.3827 4.45171C13.201 4.35532 13.0041 4.27287 12.7922 4.20261C12.7399 4.18519 12.6859 4.16835 12.6314 4.15209Z" fill="#222D65"/>
<path d="M5.58232 4.47039C5.61774 4.24219 5.76406 4.05581 5.9609 3.96174C6.0509 3.91877 6.15019 3.89497 6.25528 3.89497H10.5242C11.0299 3.89497 11.502 3.92806 11.9328 3.99774C12.0559 4.01748 12.1755 4.04013 12.2923 4.06568C12.4084 4.09181 12.5216 4.12084 12.6313 4.15277C12.6859 4.16903 12.7399 4.18587 12.7928 4.20271C13.0047 4.27297 13.2015 4.356 13.3833 4.45181C13.597 3.08903 13.3815 2.16116 12.6447 1.32097C11.8324 0.396 10.3663 0 8.49019 0H3.04374C2.66051 0 2.33361 0.27871 2.27438 0.657871L0.00579996 15.0375C-0.0389097 15.3221 0.180574 15.5787 0.467413 15.5787H3.82993L4.67419 10.2223L5.58232 4.47039Z" fill="#253B80"/>
</svg>
