<svg width="50" height="50" viewBox="0 0 50 50" fill="none" xmlns="http://www.w3.org/2000/svg">
<path d="M32.1381 14.4595H19.3363V35.5355H32.1381V14.4595Z" fill="#FF5F00"/>
<path d="M20.6546 24.9999C20.653 22.9705 21.1095 20.9672 21.9894 19.1418C22.8692 17.3165 24.1495 15.7168 25.7333 14.4637C23.7717 12.9098 21.416 11.9436 18.9352 11.6753C16.4546 11.4071 13.9492 11.8478 11.7052 12.947C9.46131 14.0461 7.56943 15.7595 6.24584 17.8912C4.92225 20.0228 4.22034 22.487 4.22034 25.0017C4.22034 27.5165 4.92225 29.9805 6.24584 32.1122C7.56943 34.244 9.46131 35.9572 11.7052 37.0565C13.9492 38.1556 16.4546 38.5964 18.9352 38.3281C21.416 38.0599 23.7717 37.0936 25.7333 35.5397C24.1489 34.2864 22.8685 32.6859 21.9885 30.8599C21.1086 29.0339 20.6524 27.0299 20.6546 24.9999Z" fill="#EB001B"/>
<path d="M45.9775 33.3058V32.8739H46.1622V32.7847H45.7227V32.8739H45.8963V33.3058H45.9775ZM46.8307 33.3058V32.7847H46.6978L46.5427 33.1569L46.3875 32.7847H46.2546V33.3058H46.3506V32.9111L46.4947 33.25H46.5944L46.7384 32.9111V33.3058H46.8307Z" fill="#F79E1B"/>
<path d="M47.2484 24.9992C47.2484 27.5142 46.5462 29.9785 45.2223 32.1102C43.8985 34.242 42.0065 35.9554 39.7622 37.0543C37.5179 38.1533 35.0123 38.5938 32.5315 38.3251C30.0507 38.0565 27.695 37.0898 25.7335 35.5354C27.3166 34.2813 28.5966 32.6811 29.4766 30.8557C30.3568 29.0301 30.8141 27.027 30.8141 24.9974C30.8141 22.9677 30.3568 20.9646 29.4766 19.1392C28.5966 17.3138 27.3166 15.7136 25.7335 14.4594C27.695 12.905 30.0507 11.9383 32.5315 11.6697C35.0123 11.4011 37.5179 11.8415 39.7622 12.9405C42.0065 14.0395 43.8985 15.7529 45.2223 17.8846C46.5462 20.0164 47.2484 22.4805 47.2484 24.9955V24.9992Z" fill="#F79E1B"/>
</svg>
