<svg width="24" height="20" viewBox="0 0 24 20" fill="none" xmlns="http://www.w3.org/2000/svg">
<g clip-path="url(#clip0)">
<path fill-rule="evenodd" clip-rule="evenodd" d="M20.5297 16.4271V15.0325H20.1892V15.8433C20.0757 15.6973 19.9135 15.6163 19.7027 15.6163C19.2648 15.6163 18.9243 15.9568 18.9243 16.4271C18.9243 16.8973 19.2648 17.2379 19.7027 17.2379C19.9297 17.2379 20.0919 17.1568 20.1892 17.0108V17.2054H20.5297V16.4271ZM10.4757 15.6487H11.027V15.9568H10.4757V16.6541C10.4757 16.8163 10.5405 16.9136 10.7027 16.9136C10.7838 16.9136 10.8973 16.8973 10.9946 16.8325L11.0919 17.1244C10.9784 17.1892 10.8162 17.2379 10.6703 17.2379C10.2811 17.2379 10.1351 17.0271 10.1351 16.6703V15.9568H9.82701V15.6487H10.1351V15.1784H10.4757V15.6487ZM5.98377 16.2325V17.2054H5.61079V16.346C5.61079 16.0865 5.49728 15.9406 5.27025 15.9406C5.05944 15.9406 4.89728 16.0703 4.89728 16.346V17.2054H4.55674V16.346C4.55674 16.0865 4.44323 15.9406 4.2162 15.9406C3.98917 15.9406 3.84323 16.0703 3.84323 16.346V17.2054H3.50269V15.6487H3.84323V15.8433C3.97296 15.6649 4.13512 15.6163 4.29728 15.6163C4.54052 15.6163 4.70269 15.7136 4.8162 15.8919C4.96214 15.6811 5.17296 15.6163 5.36755 15.6163C5.75674 15.6163 5.98377 15.8595 5.98377 16.2325ZM13.9135 15.6163C13.7189 15.6163 13.5892 15.7136 13.5081 15.8433V15.6487H13.1676V17.2054H13.5081V16.3298C13.5081 16.0703 13.6216 15.9244 13.8324 15.9244C13.8973 15.9244 13.9784 15.9406 14.0432 15.9568L14.1405 15.6325C14.0757 15.6163 13.9784 15.6163 13.9135 15.6163ZM8.9189 15.6163C9.16214 15.6163 9.38917 15.6649 9.55133 15.7784L9.40539 16.0541C9.30809 16.0054 9.1135 15.9244 8.9189 15.9244C8.74052 15.9244 8.62701 15.9892 8.62701 16.1027C8.62701 16.2 8.74052 16.2325 8.88647 16.2487L9.04863 16.2649C9.37296 16.3136 9.58377 16.4595 9.58377 16.7352C9.58377 17.0271 9.32431 17.2379 8.87025 17.2379C8.62701 17.2379 8.38377 17.173 8.20539 17.0433L8.36755 16.7838C8.48106 16.8649 8.65944 16.946 8.88647 16.946C9.1135 16.946 9.24323 16.8649 9.24323 16.7514C9.24323 16.6703 9.14593 16.6217 8.96755 16.5892L8.80539 16.573C8.46485 16.5244 8.27025 16.3784 8.27025 16.119C8.27025 15.8108 8.52971 15.6163 8.9189 15.6163ZM18.6 15.6163C18.4054 15.6163 18.2757 15.7136 18.1946 15.8433V15.6487H17.854V17.2054H18.1946V16.3298C18.1946 16.0703 18.3081 15.9244 18.5189 15.9244C18.5838 15.9244 18.6648 15.9406 18.7297 15.9568L18.827 15.6325C18.7621 15.6163 18.6648 15.6163 18.6 15.6163ZM15.0811 17.2379C14.5784 17.2379 14.254 16.8973 14.254 16.4271C14.254 15.9568 14.5784 15.6163 15.0811 15.6163C15.3081 15.6163 15.4703 15.6649 15.6324 15.7946L15.4703 16.0703C15.3405 15.973 15.2108 15.9244 15.0648 15.9244C14.7892 15.9406 14.5946 16.1352 14.5946 16.4271C14.5946 16.7352 14.7892 16.9298 15.0648 16.9298C15.2108 16.9298 15.3405 16.8811 15.4703 16.7838L15.6324 17.0595C15.4703 17.1892 15.3081 17.2379 15.0811 17.2379ZM17.4 16.4271V15.6487H17.0594V15.8433C16.9459 15.6973 16.7838 15.6163 16.573 15.6163C16.1351 15.6163 15.7946 15.9568 15.7946 16.4271C15.7946 16.8973 16.1351 17.2379 16.573 17.2379C16.8 17.2379 16.9621 17.1568 17.0594 17.0108V17.2054H17.4V16.4271ZM16.6216 15.9244C16.3297 15.9244 16.1513 16.1514 16.1513 16.4271C16.1513 16.7027 16.3297 16.9136 16.6216 16.9298C16.8973 16.9298 17.0919 16.7027 17.0919 16.4271C17.0919 16.1352 16.8973 15.9244 16.6216 15.9244ZM12.0811 15.6163C11.627 15.6163 11.3027 15.9406 11.3027 16.4271C11.3027 16.9136 11.627 17.2379 12.0973 17.2379C12.3243 17.2379 12.5513 17.173 12.7297 17.0271L12.5676 16.7838C12.4378 16.8811 12.2757 16.946 12.1135 16.946C11.9027 16.946 11.6919 16.8487 11.6432 16.573H12.7946V16.4433C12.8108 15.9406 12.5189 15.6163 12.0811 15.6163ZM12.4703 16.2811C12.4378 16.0379 12.2919 15.9081 12.0811 15.9081C11.8378 15.9081 11.6919 16.0703 11.6594 16.2811H12.4703ZM19.7513 15.9244C19.4594 15.9244 19.2811 16.1514 19.2811 16.4271C19.2811 16.7027 19.4594 16.9136 19.7513 16.9298C20.027 16.9298 20.2216 16.7027 20.2216 16.4271C20.2216 16.1352 20.027 15.9244 19.7513 15.9244ZM7.89728 16.4271V15.6487H7.55674V15.8433C7.44323 15.6973 7.28106 15.6163 7.07025 15.6163C6.63242 15.6163 6.29187 15.9568 6.29187 16.4271C6.29187 16.8973 6.63242 17.2379 7.07025 17.2379C7.29728 17.2379 7.45944 17.1568 7.55674 17.0108V17.2054H7.89728V16.4271ZM7.10269 15.9244C6.81079 15.9244 6.63242 16.1514 6.63242 16.4271C6.63242 16.7027 6.81079 16.9136 7.10269 16.9298C7.37836 16.9298 7.57296 16.7027 7.57296 16.4271C7.57296 16.1352 7.37836 15.9244 7.10269 15.9244Z" fill="black"/>
<g clip-path="url(#clip1)">
<rect x="9.43787" y="3.8269" width="5.10811" height="9.17838" fill="#FF5F00"/>
<path d="M9.76218 8.41621C9.76218 6.55134 10.6379 4.89729 11.9838 3.82702C10.9946 3.04864 9.74596 2.57837 8.3838 2.57837C5.15677 2.57837 2.54596 5.18918 2.54596 8.41621C2.54596 11.6432 5.15677 14.254 8.3838 14.254C9.74596 14.254 10.9946 13.7838 11.9838 13.0054C10.6379 11.9513 9.76218 10.2811 9.76218 8.41621Z" fill="#EB001B"/>
<path d="M21.4378 8.41621C21.4378 11.6432 18.827 14.254 15.6 14.254C14.2378 14.254 12.9892 13.7838 12 13.0054C13.3622 11.9351 14.2216 10.2811 14.2216 8.41621C14.2216 6.55134 13.3459 4.89729 12 3.82702C12.9892 3.04864 14.2378 2.57837 15.6 2.57837C18.827 2.57837 21.4378 5.2054 21.4378 8.41621Z" fill="#F79E1B"/>
</g>
</g>
<defs>
<clipPath id="clip0">
<rect x="2.43243" y="2.43237" width="20" height="15" fill="white"/>
</clipPath>
<clipPath id="clip1">
<rect x="2.43243" y="2.43237" width="20" height="12" fill="white"/>
</clipPath>
</defs>
</svg>
